<?xml version="1.0" standalone="no"?>
<!DOCTYPE svg PUBLIC "-//W3C//DTD SVG 20010904//EN"
 "http://www.w3.org/TR/2001/REC-SVG-20010904/DTD/svg10.dtd">
<svg version="1.0" xmlns="http://www.w3.org/2000/svg"
 width="499.000000pt" height="500.000000pt" viewBox="0 0 499.000000 500.000000"
 preserveAspectRatio="xMidYMid meet">

<g transform="translate(0.000000,500.000000) scale(0.100000,-0.100000)"
fill="#000000" stroke="none">
<path d="M2795 4985 c-26 -10 -81 -15 -157 -15 -64 0 -119 -4 -122 -9 -3 -5
-53 -12 -110 -16 -75 -5 -106 -11 -110 -21 -3 -9 -21 -14 -50 -14 -25 0 -47
-4 -51 -9 -3 -5 -34 -13 -70 -16 -36 -4 -65 -11 -65 -16 0 -5 -9 -9 -19 -9
-11 0 -40 -9 -66 -20 -26 -11 -58 -20 -71 -20 -13 0 -24 -4 -24 -10 0 -5 -6
-10 -13 -10 -7 0 -32 -9 -55 -20 -22 -11 -48 -20 -57 -20 -8 0 -15 -4 -15 -10
0 -5 -7 -10 -15 -10 -8 0 -30 -9 -50 -20 -20 -11 -44 -20 -55 -20 -11 0 -20
-4 -20 -8 0 -5 -21 -20 -47 -33 -27 -13 -49 -27 -51 -31 -2 -5 -12 -8 -23 -8
-10 0 -19 -4 -19 -8 0 -5 -16 -14 -35 -22 -19 -8 -35 -17 -35 -22 0 -4 -7 -8
-15 -8 -8 0 -15 -4 -15 -9 0 -5 -8 -12 -19 -16 -10 -3 -31 -17 -47 -30 -16
-14 -34 -25 -39 -25 -6 0 -17 -9 -25 -20 -8 -11 -20 -20 -26 -20 -6 0 -25 -13
-42 -30 -18 -16 -37 -30 -43 -30 -6 0 -28 -18 -49 -40 -21 -22 -43 -40 -48
-40 -13 0 -312 -296 -312 -309 0 -5 -25 -35 -55 -67 -30 -33 -55 -63 -55 -67
0 -4 -13 -22 -30 -40 -16 -18 -30 -36 -30 -40 0 -4 -9 -17 -20 -29 -11 -12
-20 -28 -20 -35 0 -7 -4 -13 -10 -13 -5 0 -10 -6 -10 -13 0 -7 -9 -23 -20 -35
-11 -12 -20 -26 -20 -32 0 -5 -4 -10 -8 -10 -4 0 -14 -16 -21 -35 -7 -19 -17
-35 -22 -35 -5 0 -9 -9 -9 -20 0 -11 -4 -20 -10 -20 -5 0 -10 -6 -10 -13 0 -7
-9 -23 -20 -35 -11 -12 -20 -28 -20 -37 0 -8 -4 -15 -10 -15 -5 0 -10 -10 -10
-22 0 -13 -9 -34 -20 -48 -11 -14 -20 -35 -20 -47 0 -13 -4 -23 -10 -23 -5 0
-10 -8 -10 -17 0 -10 -9 -33 -20 -51 -11 -18 -20 -41 -20 -52 0 -11 -4 -20 -9
-20 -5 0 -13 -24 -16 -54 -4 -32 -13 -57 -21 -60 -8 -3 -14 -19 -14 -36 0 -16
-4 -30 -9 -30 -5 0 -12 -27 -16 -60 -4 -33 -11 -63 -16 -66 -5 -3 -9 -26 -9
-51 0 -28 -6 -50 -14 -57 -16 -12 -32 -134 -46 -361 -9 -154 -2 -574 10 -590
4 -5 10 -57 14 -114 5 -69 12 -108 22 -118 7 -8 14 -30 14 -48 0 -19 4 -36 9
-39 5 -3 12 -35 16 -71 3 -36 11 -65 16 -65 5 0 9 -12 9 -28 0 -15 7 -37 15
-49 8 -11 17 -39 21 -62 4 -22 10 -41 15 -41 5 0 9 -12 9 -26 0 -14 7 -32 15
-40 8 -9 18 -27 21 -42 6 -27 22 -63 50 -112 7 -14 14 -33 14 -42 0 -10 5 -18
10 -18 6 0 10 -7 10 -15 0 -8 4 -15 8 -15 4 0 14 -17 21 -37 8 -21 27 -57 42
-80 16 -23 29 -46 29 -52 0 -6 5 -11 10 -11 6 0 10 -6 10 -13 0 -7 9 -23 20
-35 11 -12 20 -26 20 -32 0 -5 13 -24 30 -42 16 -17 30 -35 30 -39 0 -8 20
-36 47 -64 7 -8 13 -17 13 -21 0 -4 13 -20 30 -36 16 -15 30 -33 30 -39 0 -5
27 -37 60 -69 33 -32 60 -64 60 -69 0 -6 4 -11 10 -11 5 0 25 -16 44 -35 20
-19 42 -35 51 -35 8 0 15 -4 15 -10 0 -5 13 -10 29 -10 17 0 33 -5 36 -10 3
-6 42 -10 85 -10 43 0 82 4 85 10 3 5 17 10 31 10 13 0 24 5 24 10 0 6 8 10
18 10 11 0 27 9 37 20 10 11 24 20 31 20 7 0 14 4 16 8 3 8 156 112 164 112 2
0 23 12 47 27 60 39 269 143 287 143 9 0 24 6 35 14 11 7 47 21 80 31 33 10
69 25 81 32 11 7 40 17 65 23 24 5 58 12 74 16 17 4 37 12 45 19 8 7 49 17 90
23 125 18 174 28 205 43 45 20 799 20 835 0 27 -16 74 -26 190 -42 40 -6 83
-17 94 -25 11 -8 30 -14 43 -14 12 0 24 -4 27 -9 3 -4 29 -12 58 -15 29 -4 60
-13 68 -20 16 -13 113 -46 136 -46 8 0 14 -4 14 -9 0 -9 59 -35 73 -32 5 1 21
-8 37 -19 15 -11 38 -20 49 -20 12 0 21 -4 21 -10 0 -5 6 -10 13 -10 7 0 23
-9 35 -20 12 -11 27 -20 34 -20 7 0 24 -9 38 -20 14 -11 33 -20 42 -20 9 0 18
-4 20 -8 4 -12 95 -72 107 -72 6 0 11 -4 11 -8 0 -5 12 -15 28 -23 15 -8 38
-24 52 -36 14 -13 28 -23 31 -23 3 0 19 -11 35 -25 16 -14 34 -25 41 -25 6 0
13 -5 15 -11 6 -19 186 -15 222 4 47 25 126 115 126 143 0 13 5 24 10 24 14 0
12 107 -2 149 -7 20 -21 45 -30 55 -10 11 -18 25 -18 30 0 6 -9 17 -20 24 -11
7 -20 18 -20 25 0 7 -8 22 -17 33 -24 25 -115 159 -142 206 -11 21 -31 55 -43
75 -20 36 -30 56 -78 154 -11 22 -20 47 -20 55 0 8 -4 14 -10 14 -5 0 -10 9
-10 20 0 11 -4 20 -10 20 -5 0 -10 9 -10 19 0 11 -4 23 -10 26 -5 3 -10 17
-10 30 0 13 -4 27 -10 30 -5 3 -10 17 -10 31 0 13 -4 24 -10 24 -5 0 -10 14
-10 30 0 17 -4 30 -10 30 -5 0 -10 15 -10 34 0 19 -4 38 -10 41 -5 3 -10 16
-10 27 0 23 -17 81 -31 110 -5 10 -9 38 -9 63 0 25 -4 45 -9 45 -5 0 -12 30
-15 67 -4 38 -12 104 -18 148 -13 102 -13 484 0 595 6 47 14 111 18 143 3 31
10 60 15 63 5 3 9 25 9 50 0 24 4 52 9 62 14 29 31 87 31 110 0 11 5 24 10 27
6 3 10 22 10 41 0 19 5 34 10 34 6 0 10 14 10 30 0 17 5 30 10 30 6 0 10 14
10 30 0 17 4 30 8 30 5 0 15 22 22 50 7 28 17 50 22 50 4 0 8 5 8 12 0 19 43
108 52 108 4 0 8 14 8 30 0 17 4 30 9 30 5 0 14 14 21 30 7 17 16 30 21 30 5
0 9 6 9 13 0 18 24 67 33 67 4 0 7 9 7 20 0 11 4 20 8 20 5 0 15 12 23 28 8
15 22 36 32 46 9 11 17 26 17 33 0 7 4 13 8 13 5 0 15 12 23 27 8 16 25 40 38
55 30 34 51 75 51 98 0 10 5 20 11 22 8 3 12 38 12 103 0 65 -4 100 -12 103
-6 2 -11 17 -11 33 0 16 -4 29 -10 29 -5 0 -10 7 -10 15 0 15 -146 165 -161
165 -5 0 -28 18 -50 40 -23 22 -46 40 -51 40 -6 0 -23 14 -38 30 -15 17 -33
30 -39 30 -6 0 -11 5 -11 10 0 6 -7 10 -15 10 -8 0 -15 4 -15 8 0 5 -12 15
-27 23 -16 8 -37 22 -47 32 -11 9 -24 17 -28 17 -5 0 -18 9 -30 20 -12 11 -28
20 -35 20 -7 0 -13 5 -13 10 0 6 -9 10 -20 10 -11 0 -20 5 -20 10 0 6 -7 10
-15 10 -8 0 -15 5 -15 10 0 6 -9 10 -20 10 -12 0 -30 9 -42 20 -12 11 -28 20
-35 20 -7 0 -13 5 -13 10 0 6 -9 10 -20 10 -11 0 -35 9 -55 20 -20 11 -42 20
-50 20 -8 0 -15 5 -15 10 0 6 -7 10 -15 10 -9 0 -35 9 -57 20 -23 11 -48 20
-55 20 -7 0 -13 5 -13 10 0 6 -11 10 -24 10 -13 0 -45 9 -71 20 -26 11 -55 20
-66 20 -10 0 -19 4 -19 9 0 5 -29 12 -65 16 -36 3 -65 11 -65 16 0 5 -22 9
-50 9 -30 0 -52 5 -57 13 -9 16 -154 35 -348 45 -71 4 -143 13 -158 20 -38 16
-113 15 -162 -3z"/>
</g>
</svg>
