<?xml version="1.0" standalone="no"?>
<!DOCTYPE svg PUBLIC "-//W3C//DTD SVG 20010904//EN"
 "http://www.w3.org/TR/2001/REC-SVG-20010904/DTD/svg10.dtd">
<svg version="1.0" xmlns="http://www.w3.org/2000/svg"
 width="499.000000pt" height="500.000000pt" viewBox="0 0 499.000000 500.000000"
 preserveAspectRatio="xMidYMid meet">
<metadata>
Created by potrace 1.16, written by Peter Selinger 2001-2019
</metadata>
<g transform="translate(0.000000,500.000000) scale(0.100000,-0.100000)"
fill="#000000" stroke="none">
<path d="M2827 4993 c-5 -4 -72 -11 -150 -15 -175 -9 -249 -17 -261 -29 -6 -5
-34 -9 -63 -9 -29 0 -53 -4 -53 -9 0 -5 -19 -11 -42 -15 -82 -10 -118 -18
-124 -27 -3 -5 -21 -9 -40 -9 -19 0 -34 -4 -34 -10 0 -5 -11 -10 -25 -10 -14
0 -35 -5 -48 -12 -49 -25 -58 -28 -82 -28 -14 0 -25 -4 -25 -10 0 -5 -7 -10
-15 -10 -8 0 -24 -4 -35 -10 -11 -5 -29 -14 -40 -20 -11 -5 -27 -10 -35 -10
-8 0 -15 -4 -15 -10 0 -5 -11 -10 -25 -10 -14 0 -25 -4 -25 -10 0 -5 -9 -10
-20 -10 -11 0 -20 -4 -20 -10 0 -5 -11 -10 -25 -10 -14 0 -25 -4 -25 -10 0 -5
-7 -10 -15 -10 -8 0 -15 -4 -15 -10 0 -5 -9 -10 -20 -10 -11 0 -20 -4 -20 -10
0 -5 -7 -10 -15 -10 -8 0 -15 -4 -15 -10 0 -5 -9 -10 -20 -10 -11 0 -20 -4
-20 -10 0 -5 -9 -10 -20 -10 -11 0 -20 -4 -20 -10 0 -5 -7 -10 -15 -10 -8 0
-15 -4 -15 -10 0 -5 -7 -10 -15 -10 -8 0 -15 -4 -15 -10 0 -5 -6 -10 -13 -10
-7 0 -23 -9 -35 -20 -12 -11 -26 -20 -32 -20 -5 0 -10 -4 -10 -10 0 -5 -6 -10
-13 -10 -7 0 -19 -9 -27 -20 -8 -11 -21 -20 -28 -20 -8 0 -27 -13 -42 -30 -15
-16 -33 -30 -40 -30 -6 0 -29 -18 -50 -40 -21 -22 -43 -40 -48 -40 -13 0 -322
-307 -322 -320 0 -5 -22 -33 -50 -61 -27 -28 -50 -55 -50 -60 0 -5 -14 -23
-30 -41 -17 -17 -30 -35 -30 -40 0 -5 -9 -18 -20 -30 -11 -12 -20 -28 -20 -35
0 -7 -4 -13 -10 -13 -5 0 -10 -7 -10 -15 0 -8 -4 -15 -10 -15 -5 0 -10 -7 -10
-15 0 -8 -4 -15 -10 -15 -5 0 -10 -7 -10 -15 0 -8 -4 -15 -8 -15 -5 0 -14 -16
-22 -35 -8 -19 -17 -35 -22 -35 -4 0 -8 -9 -8 -20 0 -11 -4 -20 -10 -20 -5 0
-10 -7 -10 -15 0 -8 -4 -15 -10 -15 -5 0 -10 -7 -10 -15 0 -8 -4 -15 -10 -15
-5 0 -10 -9 -10 -20 0 -11 -4 -20 -10 -20 -5 0 -10 -11 -10 -25 0 -14 -4 -25
-10 -25 -5 0 -10 -7 -10 -15 0 -8 -4 -15 -10 -15 -5 0 -10 -13 -10 -30 0 -16
-4 -30 -10 -30 -5 0 -10 -9 -10 -20 0 -11 -4 -20 -10 -20 -5 0 -10 -9 -10 -20
0 -11 -4 -20 -10 -20 -5 0 -10 -11 -10 -24 0 -14 -4 -28 -10 -31 -5 -3 -10
-17 -10 -30 0 -13 -4 -27 -10 -30 -5 -3 -10 -17 -10 -31 0 -13 -4 -24 -10 -24
-5 0 -10 -13 -10 -29 0 -17 -4 -33 -10 -36 -5 -3 -10 -19 -10 -35 0 -16 -4
-32 -10 -35 -5 -3 -10 -19 -10 -35 0 -16 -4 -32 -10 -35 -5 -3 -10 -26 -10
-51 0 -24 -4 -44 -9 -44 -9 0 -15 -41 -27 -165 -3 -33 -10 -66 -16 -72 -14
-17 -13 -675 1 -701 5 -10 11 -49 12 -85 1 -37 6 -67 11 -67 4 0 8 -20 8 -45
0 -25 5 -45 10 -45 6 0 10 -20 10 -45 0 -25 5 -45 10 -45 6 0 10 -15 10 -34 0
-19 5 -38 10 -41 6 -3 10 -19 10 -36 0 -16 5 -29 10 -29 6 0 10 -14 10 -30 0
-17 5 -40 12 -53 24 -48 28 -57 28 -77 0 -11 5 -20 10 -20 6 0 10 -13 10 -30
0 -16 5 -30 10 -30 6 0 10 -9 10 -20 0 -11 5 -20 10 -20 6 0 10 -11 10 -24 0
-14 5 -28 10 -31 6 -3 10 -15 10 -26 0 -10 3 -19 8 -19 8 0 32 -48 32 -66 0
-7 3 -14 8 -16 10 -4 52 -87 52 -104 0 -8 5 -14 10 -14 6 0 10 -7 10 -15 0 -8
5 -15 10 -15 6 0 10 -7 10 -15 0 -8 5 -15 10 -15 6 0 10 -7 10 -15 0 -9 9 -25
20 -37 10 -11 26 -35 34 -52 8 -17 27 -43 41 -58 14 -15 25 -32 25 -39 0 -6
14 -24 30 -39 17 -15 30 -34 30 -42 0 -7 14 -24 30 -37 17 -13 30 -29 30 -35
0 -19 202 -216 221 -216 10 0 19 -4 21 -10 4 -13 109 -40 153 -40 18 0 46 5
62 12 15 6 33 12 38 12 19 2 95 40 95 48 0 4 6 8 13 8 6 1 28 14 47 30 19 17
38 30 42 30 4 0 17 9 28 20 11 11 27 20 35 20 8 0 15 5 15 10 0 6 7 10 15 10
8 0 24 9 35 20 11 11 27 20 35 20 8 0 15 5 15 10 0 6 9 10 19 10 11 0 21 4 23
8 4 11 166 92 184 92 8 0 14 5 14 10 0 6 9 10 20 10 11 0 34 9 52 20 18 11 41
20 51 20 9 0 27 5 40 12 48 24 57 28 77 28 11 0 20 5 20 10 0 6 15 10 34 10
19 0 38 4 41 10 3 5 17 10 30 10 13 0 27 4 30 10 3 5 21 10 40 10 19 0 37 5
40 10 3 6 28 10 56 10 27 0 49 5 49 10 0 6 19 10 43 10 24 0 47 4 53 9 16 16
161 23 434 23 286 -1 430 -8 430 -23 0 -5 20 -9 44 -9 25 0 48 -4 51 -10 3 -5
28 -10 56 -10 27 0 49 -4 49 -10 0 -5 15 -10 34 -10 19 0 38 -4 41 -10 3 -5
19 -10 35 -10 16 0 32 -4 35 -10 3 -5 17 -10 31 -10 13 0 33 -5 44 -10 11 -6
29 -15 40 -20 11 -6 29 -10 40 -10 11 0 20 -4 20 -10 0 -5 10 -10 23 -10 26 0
77 -21 77 -32 0 -5 9 -8 20 -8 11 0 28 -4 38 -9 9 -5 40 -20 67 -32 28 -13 52
-27 53 -31 2 -5 12 -8 22 -8 10 0 22 -4 25 -10 3 -5 35 -24 70 -42 36 -17 65
-35 65 -40 0 -4 5 -8 10 -8 6 0 41 -20 78 -45 37 -25 72 -45 79 -45 7 0 13 -7
13 -15 0 -8 6 -15 14 -15 8 0 27 -12 44 -27 60 -56 88 -66 186 -66 64 0 100 4
121 15 46 25 116 99 122 130 3 16 10 31 14 34 25 15 3 169 -28 202 -7 7 -13
17 -13 22 0 5 -11 20 -25 34 -14 14 -25 29 -25 33 0 4 -11 21 -25 37 -14 16
-25 33 -25 37 0 4 -6 14 -13 21 -7 7 -27 36 -44 63 -18 28 -36 55 -40 60 -5 6
-21 35 -37 65 -16 30 -35 62 -42 71 -8 8 -14 23 -14 32 0 9 -4 17 -10 17 -5 0
-10 7 -10 15 0 8 -23 62 -50 118 -28 57 -50 110 -50 119 0 9 -4 20 -10 23 -5
3 -10 17 -10 30 0 13 -4 27 -10 30 -5 3 -10 17 -10 30 0 13 -4 26 -9 29 -5 3
-11 20 -14 38 -3 18 -10 49 -16 68 -28 97 -33 118 -38 155 -2 22 -8 49 -13 60
-5 11 -11 43 -14 70 -3 28 -11 91 -17 140 -24 182 -13 562 21 740 6 33 14 80
16 105 3 25 9 54 13 65 17 43 31 92 31 113 0 11 5 24 10 27 6 3 10 22 10 41 0
19 5 34 10 34 6 0 10 14 10 30 0 17 5 30 10 30 6 0 10 14 10 30 0 17 4 30 9
30 5 0 15 23 22 50 7 28 16 50 21 50 4 0 8 9 8 20 0 11 4 20 9 20 5 0 11 13
14 29 3 16 13 36 22 44 8 9 15 27 15 41 0 14 4 26 9 26 5 0 14 14 21 30 7 17
16 30 21 30 5 0 9 9 9 20 0 11 5 20 10 20 6 0 10 9 10 20 0 11 5 20 10 20 6 0
10 9 10 20 0 11 4 20 8 20 5 0 15 12 23 28 8 15 22 36 32 46 9 11 17 26 17 33
0 7 4 13 8 13 5 0 15 12 23 27 8 16 25 40 38 55 30 34 51 75 51 98 0 10 5 20
11 22 8 3 12 38 12 103 0 65 -4 100 -12 103 -6 2 -11 17 -11 33 0 16 -4 29
-10 29 -5 0 -10 7 -10 15 0 16 -147 165 -162 165 -5 0 -27 18 -48 40 -21 22
-44 40 -50 40 -7 0 -25 14 -40 30 -15 17 -31 30 -34 30 -4 0 -16 8 -27 18 -10
11 -32 25 -47 33 -15 8 -29 17 -32 20 -12 14 -100 69 -109 69 -6 0 -11 5 -11
10 0 6 -9 10 -20 10 -11 0 -20 5 -20 10 0 6 -7 10 -15 10 -8 0 -15 5 -15 10 0
6 -8 10 -17 10 -10 0 -29 9 -43 20 -14 11 -31 20 -37 20 -7 0 -13 5 -13 10 0
6 -11 10 -25 10 -14 0 -25 5 -25 10 0 6 -9 10 -20 10 -11 0 -20 5 -20 10 0 6
-7 10 -15 10 -15 0 -25 4 -72 28 -13 7 -30 12 -38 12 -8 0 -15 5 -15 10 0 6
-11 10 -25 10 -14 0 -25 5 -25 10 0 6 -11 10 -25 10 -14 0 -34 5 -45 10 -11 6
-29 15 -40 20 -11 6 -29 10 -39 10 -11 0 -23 5 -26 10 -3 6 -21 10 -39 10 -18
0 -36 3 -40 7 -10 10 -96 32 -127 33 -14 0 -29 4 -35 9 -5 5 -34 12 -64 14
-30 3 -80 11 -110 17 -30 6 -118 16 -195 21 -77 5 -167 12 -200 15 -33 3 -64
2 -68 -3z"/>
</g>
</svg>
