<?xml version="1.0" standalone="no"?>
<!DOCTYPE svg PUBLIC "-//W3C//DTD SVG 20010904//EN"
 "http://www.w3.org/TR/2001/REC-SVG-20010904/DTD/svg10.dtd">
<svg version="1.0" xmlns="http://www.w3.org/2000/svg"
 width="671.000000pt" height="488.000000pt" viewBox="0 0 671.000000 488.000000"
 preserveAspectRatio="xMidYMid meet">

<g transform="translate(0.000000,488.000000) scale(0.100000,-0.100000)"
fill="#000000" stroke="none">
<path d="M1130 4850 c0 -5 -16 -10 -35 -10 -24 0 -35 -5 -35 -15 0 -8 -9 -15
-20 -15 -11 0 -20 -4 -20 -10 0 -5 -9 -10 -20 -10 -25 0 -158 -132 -166 -166
-3 -13 -9 -24 -13 -24 -12 0 -61 -47 -61 -59 0 -6 -4 -11 -10 -11 -5 0 -10 -9
-10 -20 0 -11 -7 -20 -15 -20 -8 0 -15 -6 -15 -13 0 -7 -9 -19 -20 -27 -11 -8
-20 -21 -20 -28 0 -8 -16 -30 -35 -49 -19 -19 -35 -41 -35 -48 0 -7 -11 -21
-25 -31 -14 -10 -25 -27 -25 -37 0 -17 -6 -26 -37 -62 -7 -7 -13 -18 -13 -24
0 -6 -4 -11 -10 -11 -5 0 -10 -9 -10 -21 0 -22 -22 -49 -39 -49 -6 0 -11 -11
-11 -25 0 -14 -4 -25 -10 -25 -5 0 -10 -9 -10 -20 0 -11 -4 -20 -10 -20 -5 0
-10 -11 -10 -25 0 -16 -6 -25 -15 -25 -9 0 -15 -9 -15 -25 0 -14 -4 -25 -10
-25 -5 0 -10 -9 -10 -20 0 -11 -4 -20 -10 -20 -5 0 -10 -11 -10 -25 0 -16 -6
-25 -15 -25 -10 0 -15 -11 -15 -35 0 -19 -4 -35 -10 -35 -5 0 -10 -11 -10 -25
0 -14 -4 -25 -10 -25 -5 0 -10 -14 -10 -30 0 -18 -6 -33 -15 -36 -9 -4 -15
-19 -15 -40 0 -19 -4 -34 -10 -34 -5 0 -10 -9 -10 -20 0 -11 -4 -20 -10 -20
-5 0 -10 -16 -10 -35 0 -24 -5 -35 -15 -35 -11 0 -15 -12 -15 -50 0 -27 -4
-50 -10 -50 -5 0 -10 -16 -10 -35 0 -19 -4 -35 -10 -35 -5 0 -10 -25 -10 -55
0 -42 -3 -55 -15 -55 -12 0 -15 -13 -15 -60 0 -33 -4 -60 -10 -60 -6 0 -10
-27 -10 -60 0 -33 -4 -60 -10 -60 -6 0 -10 -44 -10 -111 0 -85 -3 -114 -15
-125 -22 -22 -22 -466 0 -504 10 -17 14 -59 15 -137 0 -69 4 -113 10 -113 6 0
10 -20 10 -45 0 -25 5 -45 10 -45 6 0 10 -30 10 -69 0 -52 4 -70 15 -75 10 -4
15 -20 15 -51 0 -25 5 -45 10 -45 6 0 10 -16 10 -35 0 -19 5 -35 10 -35 6 0
10 -20 10 -45 0 -33 4 -45 15 -45 10 0 15 -11 15 -35 0 -19 5 -35 10 -35 6 0
10 -16 10 -35 0 -19 5 -35 10 -35 6 0 10 -16 10 -35 0 -24 5 -35 15 -35 9 0
15 -9 15 -25 0 -14 5 -25 10 -25 6 0 10 -13 10 -30 0 -16 5 -30 10 -30 6 0 10
-11 10 -24 0 -13 7 -26 15 -30 8 -3 15 -15 15 -26 0 -11 5 -20 10 -20 6 0 10
-11 10 -25 0 -14 5 -25 10 -25 6 0 10 -11 10 -25 0 -15 11 -36 25 -49 14 -13
25 -33 25 -45 0 -11 5 -21 10 -21 6 0 10 -9 10 -19 0 -10 7 -21 15 -25 8 -3
15 -15 15 -26 0 -11 5 -20 10 -20 6 0 10 -7 10 -15 0 -8 5 -15 10 -15 6 0 10
-9 10 -20 0 -11 4 -20 10 -20 5 0 17 -16 26 -35 9 -19 20 -35 25 -35 5 0 9 -7
9 -15 0 -9 11 -26 25 -39 14 -13 25 -31 25 -41 0 -17 46 -65 63 -65 4 0 7 -10
7 -21 0 -12 15 -35 35 -52 19 -16 35 -36 35 -43 0 -19 237 -254 255 -254 9 0
18 -7 21 -15 4 -8 17 -15 30 -15 13 0 24 -4 24 -10 0 -5 20 -10 45 -10 25 0
45 -4 45 -10 0 -13 77 -13 85 0 3 5 26 10 51 10 24 0 44 5 44 10 0 6 11 10 25
10 16 0 25 6 25 15 0 8 9 15 20 15 11 0 20 5 20 10 0 6 7 10 15 10 8 0 15 5
15 10 0 6 7 10 15 10 9 0 26 11 39 25 13 14 30 25 37 25 8 0 23 11 33 25 10
14 26 25 35 25 9 0 23 9 31 20 8 11 24 20 36 20 12 0 24 7 28 15 3 8 15 15 26
15 11 0 20 4 20 8 0 5 16 14 35 22 19 8 35 17 35 21 0 9 58 39 77 39 7 0 13 5
13 10 0 6 11 10 25 10 14 0 25 4 25 9 0 13 59 41 87 41 12 0 23 5 23 10 0 6
11 10 25 10 14 0 25 5 25 10 0 6 11 10 25 10 16 0 25 6 25 15 0 10 11 15 35
15 19 0 35 5 35 10 0 6 16 10 35 10 19 0 35 5 35 10 0 6 16 10 35 10 23 0 35
5 35 14 0 9 15 16 40 20 22 3 58 9 80 12 22 3 40 10 40 15 0 5 20 9 44 9 30 0
46 5 50 15 4 11 21 15 61 15 30 0 55 5 55 10 0 6 27 10 60 10 33 0 60 4 60 10
0 6 48 10 123 10 91 1 127 4 141 15 28 21 369 21 406 0 18 -10 60 -14 143 -15
71 0 117 -4 117 -10 0 -6 27 -10 60 -10 33 0 60 -4 60 -10 0 -5 25 -10 55 -10
40 0 57 -4 61 -15 5 -11 21 -15 60 -15 30 0 54 -4 54 -10 0 -5 16 -10 35 -10
19 0 35 -4 35 -10 0 -5 14 -10 31 -10 17 0 37 -7 45 -15 9 -8 26 -15 40 -15
13 0 24 -4 24 -10 0 -5 16 -10 35 -10 19 0 35 -4 35 -10 0 -5 16 -10 35 -10
24 0 35 -5 35 -15 0 -9 9 -15 25 -15 14 0 25 -4 25 -10 0 -5 11 -10 25 -10 14
0 25 -4 25 -10 0 -5 13 -10 29 -10 17 0 33 -4 36 -10 3 -5 15 -10 26 -10 10 0
19 -7 19 -15 0 -9 9 -15 25 -15 14 0 25 -4 25 -10 0 -5 9 -10 19 -10 11 0 23
-4 26 -10 3 -5 15 -10 26 -10 10 0 19 -7 19 -15 0 -9 9 -15 25 -15 14 0 25 -4
25 -8 0 -5 16 -16 35 -25 19 -9 35 -21 35 -27 0 -5 8 -10 18 -10 10 0 28 -9
40 -20 12 -11 27 -20 35 -20 8 0 23 -11 33 -25 10 -14 26 -25 36 -25 9 0 25
-11 36 -25 11 -14 26 -25 34 -25 8 0 24 -9 36 -20 12 -11 28 -20 37 -20 9 0
18 -7 21 -15 4 -8 15 -15 25 -15 10 0 19 -4 19 -10 0 -5 23 -10 50 -10 28 0
50 -4 50 -10 0 -5 18 -10 40 -10 22 0 40 5 40 10 0 6 23 10 50 10 28 0 50 5
50 10 0 6 11 10 25 10 16 0 38 13 59 35 19 19 43 35 53 35 11 0 24 13 32 33 8
17 45 62 83 99 37 37 68 74 68 82 0 7 16 27 35 43 19 17 35 38 35 47 0 17 22
46 35 46 12 0 35 29 35 45 0 9 16 32 35 52 19 20 35 42 35 50 0 7 5 13 10 13
6 0 10 11 10 25 0 14 5 25 11 25 17 0 39 27 39 49 0 12 5 21 10 21 6 0 10 9
10 20 0 11 7 23 15 26 8 4 15 15 15 25 0 10 5 19 10 19 6 0 10 10 10 21 0 12
11 32 25 45 14 13 25 30 25 39 0 8 5 15 10 15 6 0 10 14 10 31 0 17 6 37 13
44 31 36 37 46 37 65 0 11 5 20 10 20 6 0 10 8 10 18 0 27 27 96 39 100 6 2
11 19 11 38 0 19 5 34 10 34 6 0 10 11 10 25 0 14 5 25 10 25 6 0 10 14 10 30
0 18 6 33 15 36 10 4 15 20 15 50 0 24 5 44 10 44 6 0 10 16 10 35 0 19 5 35
10 35 6 0 10 25 10 55 0 40 4 57 15 61 11 5 15 21 15 60 0 30 5 54 10 54 6 0
10 27 10 60 0 33 4 60 10 60 6 0 10 42 10 105 0 63 4 105 10 105 6 0 10 101
10 284 0 179 -4 287 -10 291 -6 4 -10 55 -10 121 0 69 -4 114 -10 114 -5 0
-10 23 -10 50 0 28 -4 50 -10 50 -6 0 -10 28 -10 65 0 51 -3 65 -15 65 -11 0
-15 12 -15 45 0 25 -4 45 -10 45 -5 0 -10 16 -10 35 0 19 -4 35 -10 35 -5 0
-10 23 -10 50 0 38 -4 50 -15 50 -10 0 -15 11 -15 35 0 19 -4 35 -10 35 -5 0
-10 16 -10 35 0 19 -4 35 -10 35 -5 0 -10 16 -10 35 0 24 -5 35 -15 35 -8 0
-15 9 -15 20 0 11 -4 20 -10 20 -5 0 -10 11 -10 25 0 14 -4 25 -10 25 -5 0
-10 15 -10 34 0 21 -6 36 -15 40 -8 3 -15 15 -15 26 0 11 -4 20 -10 20 -5 0
-10 9 -10 20 0 11 -4 20 -10 20 -5 0 -10 11 -10 24 0 13 -7 26 -15 30 -8 3
-15 15 -15 26 0 11 -4 20 -10 20 -5 0 -10 9 -10 20 0 11 -4 20 -10 20 -5 0
-10 10 -10 23 0 15 -9 29 -25 37 -16 8 -25 22 -25 37 0 13 -4 23 -10 23 -5 0
-10 7 -10 15 0 9 -11 26 -25 39 -14 13 -25 32 -25 42 0 11 -11 28 -25 38 -14
10 -25 26 -25 35 0 9 -9 23 -20 31 -11 8 -20 20 -20 27 0 8 -16 29 -35 47 -19
19 -35 44 -35 55 0 12 -5 21 -11 21 -12 0 -39 25 -39 37 0 4 -11 17 -25 27
-14 10 -25 24 -25 31 0 18 -167 185 -185 185 -8 0 -15 5 -15 10 0 6 -11 10
-25 10 -16 0 -25 6 -25 15 0 9 -9 15 -25 15 -14 0 -25 5 -25 10 0 6 -40 10
-100 10 -60 0 -100 -4 -100 -10 0 -5 -16 -10 -35 -10 -24 0 -35 -5 -35 -15 0
-9 -9 -15 -25 -15 -14 0 -25 -4 -25 -10 0 -5 -9 -10 -20 -10 -11 0 -20 -4 -20
-10 0 -5 -7 -10 -15 -10 -8 0 -15 -7 -15 -15 0 -8 -9 -15 -20 -15 -11 0 -20
-4 -20 -10 0 -5 -5 -10 -11 -10 -14 0 -39 -25 -39 -39 0 -6 -10 -11 -23 -11
-12 0 -29 -9 -37 -20 -8 -11 -25 -20 -37 -20 -14 0 -23 -6 -23 -15 0 -8 -9
-15 -20 -15 -11 0 -20 -4 -20 -10 0 -5 -7 -10 -15 -10 -8 0 -15 -4 -15 -10 0
-5 -9 -10 -19 -10 -10 0 -21 -7 -25 -15 -3 -8 -15 -15 -26 -15 -11 0 -20 -4
-20 -10 0 -5 -11 -10 -25 -10 -14 0 -25 -4 -25 -10 0 -5 -9 -10 -19 -10 -10 0
-21 -7 -25 -15 -3 -8 -15 -15 -26 -15 -11 0 -20 -4 -20 -10 0 -5 -11 -10 -25
-10 -14 0 -25 -4 -25 -10 0 -5 -16 -10 -35 -10 -24 0 -35 -5 -35 -15 0 -8 -9
-15 -20 -15 -11 0 -20 -4 -20 -10 0 -5 -11 -10 -25 -10 -14 0 -25 -4 -25 -10
0 -5 -15 -10 -32 -10 -18 0 -42 -7 -52 -15 -11 -8 -28 -15 -38 -15 -10 0 -18
-4 -18 -10 0 -5 -16 -10 -35 -10 -19 0 -35 -4 -35 -10 0 -5 -15 -10 -33 -10
-18 0 -42 -7 -53 -15 -10 -8 -31 -15 -46 -15 -16 0 -28 -4 -28 -10 0 -6 -27
-10 -60 -10 -33 0 -60 -4 -60 -9 0 -4 -30 -11 -67 -14 -38 -4 -69 -11 -71 -17
-2 -5 -35 -10 -73 -10 -39 0 -69 -4 -69 -10 0 -6 -132 -10 -375 -10 -243 0
-375 4 -375 10 0 6 -30 10 -69 10 -41 0 -71 4 -73 11 -2 6 -34 13 -71 16 -37
3 -67 9 -67 13 0 5 -21 11 -47 14 -102 12 -133 19 -144 32 -6 8 -29 14 -50 14
-22 0 -39 5 -39 10 0 6 -16 10 -35 10 -19 0 -35 5 -35 10 0 6 -8 10 -17 10
-10 0 -27 7 -37 15 -11 8 -30 15 -43 15 -13 0 -23 5 -23 10 0 6 -16 10 -35 10
-19 0 -35 5 -35 10 0 6 -9 10 -20 10 -11 0 -20 7 -20 15 0 10 -11 15 -35 15
-19 0 -35 5 -35 10 0 6 -11 10 -25 10 -14 0 -25 5 -25 10 0 6 -9 10 -20 10
-11 0 -23 7 -26 15 -4 8 -15 15 -25 15 -10 0 -19 5 -19 10 0 6 -11 10 -25 10
-14 0 -25 5 -25 10 0 6 -9 10 -20 10 -11 0 -23 7 -26 15 -4 8 -15 15 -25 15
-10 0 -19 5 -19 10 0 6 -7 10 -15 10 -8 0 -15 5 -15 10 0 6 -9 10 -20 10 -11
0 -20 7 -20 15 0 9 -9 15 -23 15 -12 0 -29 9 -37 20 -8 11 -25 20 -37 20 -13
0 -23 5 -23 10 0 19 -48 60 -70 60 -11 0 -20 7 -20 15 0 8 -7 15 -15 15 -8 0
-15 5 -15 10 0 6 -9 10 -20 10 -11 0 -20 5 -20 10 0 6 -11 10 -25 10 -16 0
-25 6 -25 15 0 10 -10 15 -30 15 -16 0 -30 5 -30 10 0 6 -38 10 -95 10 -57 0
-95 -4 -95 -10z"/>
</g>
</svg>
