<svg width="1479" height="1077" viewBox="0 0 1479 1077" fill="none" xmlns="http://www.w3.org/2000/svg">
<rect width="1479" height="1077" fill="#28A54A"/>
<path d="M0 583C0 583 131.332 485.221 222 433C335.332 367.726 399.539 325.853 526 292.5C644.152 261.338 715.329 265.308 837.5 263C1062.07 258.757 1190.09 279.605 1408.5 332C1436.13 338.628 1479 350 1479 350V497.5C1479 497.5 1237.96 427.354 1079 419.5C970.244 414.126 909.36 430.502 800.5 433C702.504 435.249 643.273 404.453 549.5 433C495.618 449.403 420.5 497.5 420.5 497.5C420.5 497.5 420.5 511.5 353.5 553C286.5 594.5 277.5 647.5 222 709.5C166.5 771.5 0 832 0 832V583Z" fill="#43AFD2"/>
<path fill-rule="evenodd" clip-rule="evenodd" d="M1006.47 296.447C1071.5 297.722 1173.87 306.224 1181.02 312.22C1183.61 314.385 1188.58 317.258 1193.89 320.327C1210.21 329.76 1229.74 341.052 1193.14 339.369C1165.65 338.105 1157.92 337.179 1153.91 340.606C1150.83 343.228 1149.93 348.398 1144.02 357.913C1130.38 379.865 1067.1 382.727 1024.29 376.457C1015.2 375.126 1007.55 374.501 1000.86 373.955C994.423 373.429 988.875 372.976 983.782 372.035C965.911 368.731 960.883 345.848 966.655 327.38C972.481 308.738 988.24 296.09 1006.47 296.447ZM1446.07 341.22C1437.94 334.404 1330.78 335.987 1272.9 337.773C1269.06 337.891 1265.35 339.11 1262.12 341.298C1246.36 351.978 1249.8 377.843 1267.96 383.434C1294.36 391.564 1324.1 399.746 1344.33 402.709C1378.24 407.675 1380.18 403.631 1386.29 390.822C1387.9 387.462 1389.79 383.499 1392.62 378.937C1399.32 368.166 1403.55 371.404 1411.85 377.761C1420.47 384.36 1433.48 394.319 1458.19 395.456C1506.71 397.687 1456.6 350.036 1446.07 341.22ZM1247.67 427.788C1259.86 435.238 1279.8 443.476 1334.04 460.128C1338.22 461.412 1342.6 461.612 1346.79 460.718C1372.44 455.249 1372.39 426.548 1346.34 421.039C1343.46 420.428 1340.56 419.818 1337.66 419.207C1304.16 412.145 1270.77 405.107 1252.18 397.91C1227.76 388.455 1208.91 376.44 1195.75 368.051C1182.49 359.6 1175 354.829 1173.41 360.061C1165.16 387.182 1199.96 404.074 1228.43 417.892C1233.5 420.353 1238.37 422.717 1242.76 425.024C1244.54 425.958 1246.19 426.884 1247.67 427.788ZM189.373 538C179.13 538 94.9746 610.498 49.9992 650.428C46.9891 653.101 44.7292 656.496 43.4097 660.299C36.8153 679.305 55.3789 697.032 73.803 688.954C98.6375 678.065 125.6 665.261 142.76 654.5C172.446 635.884 171.732 631.387 169.472 617.148C168.879 613.413 168.179 609.007 167.895 603.5C167.222 590.498 172.38 590.255 182.505 589.778C193.017 589.282 208.88 588.535 229.131 573C268.889 542.5 202.626 538 189.373 538ZM260.419 647.176C253.944 655.482 241.732 665.559 206.707 687.433C202.072 690.328 196.757 691.708 191.387 691.459C165.01 690.234 159.032 663.584 183.19 652.363C207.253 641.185 231.057 630.076 242.92 620.967C258.736 608.824 268.769 595.207 275.774 585.699C282.831 576.122 286.815 570.715 290.542 575.185C290.705 575.38 290.861 575.587 291.012 575.808C304.168 595.042 285.788 616.831 269.555 636.074L269.554 636.075C266.337 639.888 263.205 643.602 260.419 647.176ZM131.432 752.609C95.3864 770.377 80.9291 775.19 71.0697 776.036C67.305 776.359 63.3754 776.806 59.3756 777.26L59.3735 777.261C35.9969 779.919 10.2231 782.85 0.960045 762.917C0.564055 762.065 0.279943 761.228 0.126455 760.413C-0.989768 754.487 5.35027 754.136 16.5797 753.515C27.7271 752.898 43.6929 752.015 61.9658 745.146C75.1435 740.192 96.1723 726.553 117.684 712.411C141.715 696.613 159.617 715.789 144.7 740.401C141.522 745.643 136.92 749.904 131.432 752.609ZM279.407 470.428C324.382 430.498 408.538 358 418.781 358C432.033 358 498.297 362.5 458.539 393C438.288 408.535 422.424 409.282 411.913 409.778C401.788 410.255 396.63 410.498 397.302 423.5C397.587 429.007 398.287 433.413 398.88 437.148L398.88 437.148C401.14 451.387 401.854 455.884 372.168 474.5C355.008 485.261 328.045 498.065 303.211 508.954C284.787 517.032 266.223 499.305 272.818 480.299C274.137 476.496 276.397 473.101 279.407 470.428Z" fill="#CBF2FF" fill-opacity="0.25"/>
</svg>
